<svg xmlns="http://www.w3.org/2000/svg" viewBox="0 0 800 520" width="800" height="520" role="img">
  <title>Illustration: a student dashboard on a laptop with books, a quiz score and a completed task</title>
  <defs>
    <linearGradient id="bg" x1="0" y1="0" x2="1" y2="1"><stop offset="0" stop-color="#4f46e5"/><stop offset="1" stop-color="#0ea5e9"/></linearGradient>
  </defs>
  <rect width="800" height="520" fill="url(#bg)"/>
  <circle cx="704" cy="62" r="166" fill="#fff" opacity=".10"/>
  <circle cx="64" cy="494" r="135" fill="#fff" opacity=".08"/>
  <g>
    <ellipse cx="400" cy="470" rx="300" ry="22" fill="#000" opacity=".14"/>
    <rect x="190" y="120" width="420" height="270" rx="20" fill="#0f172a"/>
    <rect x="204" y="134" width="392" height="242" rx="10" fill="#fff"/>
    <rect x="204" y="134" width="392" height="34" rx="10" fill="#e0e7ff"/><rect x="204" y="152" width="392" height="16" fill="#e0e7ff"/>
    <circle cx="224" cy="151" r="5" fill="#f87171"/><circle cx="242" cy="151" r="5" fill="#fbbf24"/><circle cx="260" cy="151" r="5" fill="#34d399"/>
    <rect x="222" y="184" width="112" height="176" rx="8" fill="#eef2ff"/>
    <rect x="234" y="198" width="70" height="9" rx="4.5" fill="#6366f1"/><rect x="234" y="218" width="88" height="8" rx="4" fill="#a5b4fc"/><rect x="234" y="236" width="60" height="8" rx="4" fill="#a5b4fc"/><rect x="234" y="254" width="80" height="8" rx="4" fill="#a5b4fc"/>
    <rect x="346" y="184" width="118" height="80" rx="8" fill="#c7d2fe"/><rect x="474" y="184" width="104" height="80" rx="8" fill="#ddd6fe"/>
    <rect x="346" y="276" width="232" height="84" rx="8" fill="#eef2ff"/>
    <rect x="360" y="292" width="140" height="10" rx="5" fill="#6366f1"/>
    <rect x="360" y="312" width="196" height="9" rx="4.5" fill="#c7d2fe"/><rect x="360" y="330" width="170" height="9" rx="4.5" fill="#c7d2fe"/>
    <path d="M130 396 h540 l-30 34 h-480 z" fill="#1e293b"/><rect x="330" y="404" width="140" height="8" rx="4" fill="#475569"/>
  </g>
  <g>
    <rect x="84" y="362" width="120" height="26" rx="4" fill="#4f46e5"/><rect x="94" y="336" width="104" height="26" rx="4" fill="#0ea5e9"/><rect x="80" y="310" width="112" height="26" rx="4" fill="#f59e0b"/>
    <rect x="90" y="318" width="60" height="6" rx="3" fill="#fff" opacity=".8"/><rect x="100" y="344" width="50" height="6" rx="3" fill="#fff" opacity=".8"/><rect x="92" y="370" width="64" height="6" rx="3" fill="#fff" opacity=".8"/>
  </g>
  <g>
    <circle cx="640" cy="150" r="42" fill="#10b981"/><path d="M620 150 l14 14 l28 -30" fill="none" stroke="#fff" stroke-width="10" stroke-linecap="round" stroke-linejoin="round"/>
    <rect x="600" y="222" width="150" height="58" rx="16" fill="#fff"/><circle cx="628" cy="251" r="12" fill="#fbbf24"/><rect x="650" y="238" width="80" height="9" rx="4.5" fill="#6366f1"/><rect x="650" y="256" width="56" height="8" rx="4" fill="#c7d2fe"/>
    <rect x="70" y="150" width="130" height="52" rx="14" fill="#fff"/><text x="92" y="184" font-family="Segoe UI,Arial,sans-serif" font-size="24" font-weight="700" fill="#4f46e5">8 / 10</text>
  </g>
  <g fill="#fff" opacity=".85">
    <path d="M300 70 l7 18 l18 7 l-18 7 l-7 18 l-7 -18 l-18 -7 l18 -7 z"/><path d="M700 380 l5 13 l13 5 l-13 5 l-5 13 l-5 -13 l-13 -5 l13 -5 z"/>
  </g>
</svg>
